<?xml version="1.0" encoding="utf-8"?>
<!-- Generator: Adobe Illustrator 26.5.0, SVG Export Plug-In . SVG Version: 6.00 Build 0)  -->
<svg version="1.1" id="Capa_1" xmlns="http://www.w3.org/2000/svg" xmlns:xlink="http://www.w3.org/1999/xlink" x="0px" y="0px"
	 viewBox="0 0 20 20" style="enable-background:new 0 0 20 20;" xml:space="preserve">
<style type="text/css">
	.st0{fill:#2C7566;}
</style>
<path class="st0" d="M23.1,7.1H5.3c-0.6,0-1.1,0.5-1.1,1.1V26c0,0.6,0.5,1.1,1.1,1.1h9.6v-7.7h-2.6v-3h2.6v-2.2c0-2.6,1.6-4,3.9-4
	c1.1,0,2.1,0.1,2.3,0.1V13h-1.6c-1.3,0-1.5,0.6-1.5,1.5v1.9h3l-0.4,3H18v7.7h5.1c0.6,0,1.1-0.5,1.1-1.1V8.2
	C24.2,7.6,23.7,7.1,23.1,7.1z"/>
</svg>
